<?xml version="1.0" encoding="UTF-8" standalone="no"?><!DOCTYPE svg PUBLIC "-//W3C//DTD SVG 1.1//EN" "http://www.w3.org/Graphics/SVG/1.1/DTD/svg11.dtd"><svg width="100%" height="100%" viewBox="0 0 1124 510" version="1.1" xmlns="http://www.w3.org/2000/svg" xmlns:xlink="http://www.w3.org/1999/xlink" xml:space="preserve" xmlns:serif="http://www.serif.com/" style="fill-rule:evenodd;clip-rule:evenodd;stroke-linejoin:round;stroke-miterlimit:2;"><rect id="Logo---grafk" serif:id="Logo - grafk" x="0" y="0" width="1124" height="510" style="fill:none;"/><g id="Logo---grafk1" serif:id="Logo - grafk"><g><text x="289.795px" y="444.743px" style="font-family:'TeluguMN', 'Telugu MN';font-size:143.812px;fill:#100517;">D<tspan x="447.008px 577.608px 709.612px 798.079px 959.435px " y="444.743px 444.743px 444.743px 444.743px 444.743px ">ESIGN</tspan></text><g><path d="M73.427,362.483c0,0 9.638,-11.895 17.225,-21.258c4.706,-5.808 13.05,-7.1 19.293,-2.988c11.715,7.879 24.43,11.805 38.126,11.805c11.943,0 21.784,-1.769 29.525,-5.307c7.741,-3.539 11.611,-8.405 11.611,-14.597c0,-10.506 -8.57,-15.758 -25.71,-15.758c-4.645,0 -11.556,0.552 -20.734,1.658c-9.179,1.106 -16.09,1.659 -20.735,1.659c-28.53,0 -42.795,-10.229 -42.795,-30.687c0,-5.861 2.377,-11.611 7.132,-17.251c4.755,-5.639 10.285,-9.786 16.588,-12.44c-20.237,-13.16 -30.355,-31.793 -30.355,-55.9c0,-19.02 6.967,-34.751 20.9,-47.191c13.933,-12.441 31.074,-18.661 51.421,-18.661c15.924,0 29.249,2.986 39.976,8.957l16.255,-18.909c0,0 15.07,13.675 23.368,21.206c1.306,1.185 2.01,2.895 1.917,4.655c-0.094,1.761 -0.974,3.387 -2.397,4.428c-5.823,4.257 -13.93,10.184 -13.93,10.184c6.856,10.395 10.284,22.669 10.284,36.824c0,20.237 -6.165,36.409 -18.495,48.518c-12.33,12.109 -27.895,18.163 -46.694,18.163c-2.986,0 -6.966,-0.276 -11.943,-0.829l-6.801,-0.995c-0.774,0 -3.732,1.189 -8.874,3.566c-5.142,2.378 -7.713,4.838 -7.713,7.382c0,4.423 3.815,6.635 11.445,6.635c3.428,0 9.179,-0.83 17.251,-2.489c8.073,-1.658 14.984,-2.488 20.735,-2.488c40.362,0 60.544,16.201 60.544,48.601c0,17.915 -8.073,31.987 -24.218,42.215c-16.145,10.229 -35.608,15.344 -58.388,15.344c-27.203,0 -51.808,-8.017 -73.814,-24.052Zm41.469,-160.898c0,10.505 2.903,18.937 8.708,25.296c5.806,6.358 13.63,9.538 23.471,9.538c9.842,0 17.417,-3.097 22.725,-9.289c5.308,-6.193 7.962,-14.708 7.962,-25.545c0,-8.957 -2.847,-16.532 -8.542,-22.725c-5.695,-6.192 -13.077,-9.289 -22.145,-9.289c-9.51,0 -17.251,2.986 -23.222,8.957c-5.971,5.972 -8.957,13.657 -8.957,23.057Z" style="fill:#72727d;fill-rule:nonzero;"/><path d="M413.257,166.144c-2.952,5.961 -9.859,8.817 -16.159,6.684c-4.451,-1.515 -9.13,-2.262 -14.03,-2.262c-9.621,0 -18.163,4.369 -25.628,13.105c-7.464,8.736 -11.196,19.407 -11.196,32.013l0,88.978c0,6.741 -5.465,12.206 -12.206,12.206c-12.233,0 -29.263,0 -29.263,0l0,-177.652l36.685,0c2.642,0 4.784,2.142 4.784,4.784l0,11.472c11.611,-13.049 27.037,-19.573 46.279,-19.573c14.155,0 24.992,2.156 32.511,6.469c0,0 -6.655,13.436 -11.777,23.776Z" style="fill:#72727d;fill-rule:nonzero;"/><path d="M585.72,299.119c-3.76,6.193 -10.312,11.252 -19.656,15.178c-9.344,3.925 -19.103,5.888 -29.277,5.888c-19.131,0 -34.17,-4.783 -45.118,-14.348c-10.947,-9.565 -16.421,-23.139 -16.421,-40.722c0,-20.569 7.713,-36.658 23.139,-48.27c15.427,-11.611 37.35,-17.416 65.769,-17.416c4.866,0 10.616,0.829 17.251,2.488c0,-20.9 -13.214,-31.351 -39.644,-31.351c-11.072,0 -20.862,1.311 -29.37,3.932c-2.557,0.865 -5.357,0.641 -7.743,-0.621c-2.387,-1.263 -4.149,-3.451 -4.872,-6.051c-2.7,-9.364 -6.118,-21.643 -6.118,-21.643c14.265,-6.856 31.239,-10.284 50.923,-10.284c27.093,0 46.943,6.165 59.549,18.495c12.607,12.33 18.91,35.69 18.91,70.082c0,0.019 0,37.966 0,37.985c0,23.665 4.755,38.538 14.265,44.62c-3.428,5.972 -7.243,9.648 -11.445,11.031c-4.203,1.382 -9.013,2.073 -14.431,2.073c-5.972,0 -11.335,-2.212 -16.09,-6.635c-4.755,-4.423 -7.962,-9.234 -9.621,-14.431Zm-3.981,-61.988c0,-2.274 -1.632,-4.219 -3.871,-4.615c-5.175,-0.936 -9.192,-1.405 -12.053,-1.405c-32.732,0 -49.099,10.726 -49.099,32.179c0,15.924 9.234,23.886 27.701,23.886c24.881,0 37.322,-12.44 37.322,-37.322l0,-12.723Z" style="fill:#72727d;fill-rule:nonzero;"/><path d="M817.656,96.058c-1.773,4.552 -6.641,7.088 -11.387,5.934c-5.208,-1.404 -9.462,-2.088 -12.755,-2.088c-7.851,0 -14.514,3.373 -19.988,10.118c-5.474,6.746 -8.211,15.04 -8.211,24.882c0,1.437 0.056,2.875 0.166,4.312l26.766,0c5.555,0 10.058,4.503 10.058,10.058c0,10.08 0,24.112 0,24.112l-36.16,0l0,131.276c0,6.741 -5.465,12.206 -12.206,12.206c-12.233,0 -29.263,0 -29.263,0l0,-143.482l-18.26,0c-4.206,0 -7.616,-3.409 -7.616,-7.616l0,-26.554l26.042,0c0.885,-21.785 7.326,-39.367 19.324,-52.748c11.999,-13.38 27.508,-20.071 46.528,-20.071c9.842,0 21.84,2.157 35.995,6.47c0,0 -5.396,13.854 -9.033,23.191Z" style="fill:#72727d;fill-rule:nonzero;"/><path d="M1016.64,316.868c-9.044,0 -17.474,-4.577 -22.4,-12.162c-14.604,-22.485 -44.352,-68.287 -44.352,-68.287l-19.905,21.066l0,47.177c0,6.741 -5.465,12.206 -12.206,12.206c-12.233,0 -29.262,0 -29.262,0l0,-231.283c0,-7.362 5.047,-13.764 12.206,-15.482c12.233,-2.936 29.262,-7.023 29.262,-7.023l0,144.311c0,0 32.803,-37.765 49.58,-57.08c6.122,-7.047 14.998,-11.095 24.334,-11.095l35.231,0l-60.046,67.345l72.321,110.307l-34.763,0Z" style="fill:#72727d;fill-rule:nonzero;"/></g></g></g></svg>